<svg xmlns="http://www.w3.org/2000/svg" viewBox="-4.00 -75.02 465.97 103.97"><g transform="translate(-14.40 -84.93) scale(0.9933)"><rect x="28.5" y="14" width="5" height="16" rx="2.5" fill="#0A0A0B"/><rect x="21" y="26" width="20" height="30" rx="5" fill="#0A0A0B"/><rect x="66.5" y="46" width="5" height="14" rx="2.5" fill="#0A0A0B"/><rect x="59" y="26" width="20" height="24" rx="5" fill="#0A0A0B"/><path d="M19 70Q46 94 81 66" fill="none" stroke="#0A0A0B" stroke-width="9" stroke-linecap="round"/></g><path transform="translate(86.57 0)" d="M40.65 -46.8L43.1 -46.8L42.75 -33.6L43.1 -20.4L40.65 -20.4L38.75 -31.8L18.35 -31.95L18.35 -3.6L27.05 -1.8L27.05 0L4.05 0L4.05 -1.8L12.75 -3.6L12.75 -64L4.05 -65.85L4.05 -67.6L46.7 -67.6L50.85 -69.95L51.9 -69.95L54.15 -49.95L52.05 -49.75L46.4 -64.1L18.35 -64.1L18.35 -35.3L38.75 -35.5L40.65 -46.8M69.6 -40L69.6 -14.9Q69.6 -10.7 70.6 -8.33Q71.6 -5.95 74.05 -4.98Q76.5 -4 80.75 -4L80.75 -4Q83.8 -4 87.4 -5.2L87.4 -5.2Q90.7 -6.25 93.8 -8.75L93.8 -8.75L93.8 -39.9L84.9 -42.25L84.9 -44.05L99.5 -44.8L98.95 -40L98.95 -5.65Q99.4 -5.45 100.48 -5.18Q101.55 -4.9 102.9 -4.6Q104.25 -4.3 105.48 -4.05Q106.7 -3.8 107.5 -3.7L107.5 -3.7L107.5 -2.4L95.15 0.9L94.35 0.9L93.85 -6.55Q91.7 -4.7 89.95 -3.4L89.95 -3.4Q87.5 -1.65 85.48 -0.7Q83.45 0.25 81.55 0.63Q79.65 1 77.55 1L77.55 1Q70.6 1 67.55 -2.5Q64.5 -6 64.5 -13.4L64.5 -13.4L64.5 -39.9L55.6 -42.25L55.6 -44.05L70.15 -44.8L69.6 -40M140.7 0L140.7 -1.75L148.45 -3.35L148.45 -28.35Q148.45 -32.65 147.35 -35.22Q146.25 -37.8 143.78 -38.93Q141.3 -40.05 137.1 -40.05L137.1 -40.05Q133.7 -40.05 129.9 -38.8L129.9 -38.8Q126.3 -37.55 122.9 -34.85L122.9 -34.85L122.9 -3.35L130.65 -1.75L130.65 0L110.05 0L110.05 -1.75L117.8 -3.35L117.8 -37.8Q117 -38.15 115.05 -38.75Q113.1 -39.35 109.7 -40.2L109.7 -40.2L109.7 -41.5L121.5 -45.05L122.2 -45.05L122.85 -37Q125.2 -39 127.1 -40.4L127.1 -40.4Q129.7 -42.25 131.9 -43.25Q134.1 -44.25 136.18 -44.65Q138.25 -45.05 140.45 -45.05L140.45 -45.05Q147.45 -45.05 150.5 -41.37Q153.55 -37.7 153.55 -29.8L153.55 -29.8L153.55 -3.35L161.3 -1.75L161.3 0L140.7 0M182.35 -29.7L174.3 -3.4L182.25 -1.7L181.7 0L159.85 0L160.4 -1.7L169 -3.4L187.6 -64.25L179.65 -65.9L180.15 -67.6L204.05 -67.6Q211.25 -67.6 215.63 -65.73Q220 -63.85 222 -60.57Q224 -57.3 224 -53L224 -53Q224 -48.25 222.23 -44.03Q220.45 -39.8 216.9 -36.6Q213.35 -33.4 208.02 -31.55Q202.7 -29.7 195.6 -29.7L195.6 -29.7L182.35 -29.7M183.3 -32.95L194.8 -32.95Q200.9 -32.95 205.38 -34.4Q209.85 -35.85 212.75 -38.5Q215.65 -41.15 217.1 -44.75Q218.55 -48.35 218.55 -52.6L218.55 -52.6Q218.55 -56.35 216.9 -58.97Q215.25 -61.6 211.55 -62.97Q207.85 -64.35 201.7 -64.35L201.7 -64.35L192.9 -64.35L183.3 -32.95M226.05 -20.35L226.05 -20.35Q225.5 -17.2 225.5 -13.95L225.5 -13.95Q225.5 -7.95 227.75 -5.57Q230 -3.2 233.7 -3.2L233.7 -3.2Q236.1 -3.2 238.48 -4.12Q240.85 -5.05 243.28 -7.47Q245.7 -9.9 248.2 -14.4L248.2 -14.4L250.45 -14.4Q247.45 -8.25 244.58 -4.9Q241.7 -1.55 238.68 -0.28Q235.65 1 232.15 1L232.15 1Q228.75 1 226.08 -0.37Q223.4 -1.75 221.9 -4.62Q220.4 -7.5 220.4 -12.05L220.4 -12.05Q220.4 -17.75 221.83 -22.77Q223.25 -27.8 225.75 -31.87Q228.25 -35.95 231.5 -38.9Q234.75 -41.85 238.43 -43.45Q242.1 -45.05 245.8 -45.05L245.8 -45.05Q249.1 -45.05 251.18 -43.92Q253.25 -42.8 254.23 -40.93Q255.2 -39.05 255.2 -36.75L255.2 -36.75Q255.2 -34.7 254.5 -32.65Q253.8 -30.6 252.5 -28.95L252.5 -28.95Q249.6 -27.8 246.43 -26.65Q243.25 -25.5 239.83 -24.4Q236.4 -23.3 232.75 -22.25L232.75 -22.25Q229.5 -21.3 226.05 -20.35M244.4 -42.3L244.4 -42.3Q241.5 -42.3 238.73 -40.8Q235.95 -39.3 233.55 -36.6Q231.15 -33.9 229.35 -30.35L229.35 -30.35Q227.6 -26.9 226.6 -22.9L226.6 -22.9Q232.15 -24.5 236.1 -25.9L236.1 -25.9Q240.4 -27.4 243.13 -28.65Q245.85 -29.9 247.33 -31.08Q248.8 -32.25 249.43 -33.4Q250.05 -34.55 250.25 -35.8L250.25 -35.8Q250.4 -37.65 249.9 -39.08Q249.4 -40.5 248.1 -41.4Q246.8 -42.3 244.4 -42.3M259.5 0L271.7 -40.4Q271.45 -40.5 271.05 -40.53Q270.65 -40.55 270.05 -40.55L270.05 -40.55Q267.9 -40.55 265.98 -39.6Q264.05 -38.65 262.25 -36.7Q260.45 -34.75 258.7 -31.7L258.7 -31.7L257.4 -32.25Q259.55 -37.25 261.9 -39.97Q264.25 -42.7 266.9 -43.8Q269.55 -44.9 272.45 -44.9L272.45 -44.9Q273.3 -44.9 274.15 -44.8Q275 -44.7 275.8 -44.55Q276.6 -44.4 277.15 -44.2L277.15 -44.2L271.15 -25Q274.3 -31.2 277.5 -35.55L277.5 -35.55Q281 -40.2 284.52 -42.6Q288.05 -45 291.4 -45L291.4 -45Q293.8 -45 294.88 -43.95Q295.95 -42.9 295.95 -41.2L295.95 -41.2Q295.95 -39.9 295.33 -38.95Q294.7 -38 293.77 -37.45Q292.85 -36.9 291.95 -36.9L291.95 -36.9Q291.6 -36.9 291.08 -37.27Q290.55 -37.65 289.85 -38.35L289.85 -38.35Q289.25 -39 288.52 -39.5Q287.8 -40 287.05 -40L287.05 -40Q285.55 -40 283.6 -38.65Q281.65 -37.3 279.58 -34.9Q277.5 -32.5 275.48 -29.35Q273.45 -26.2 271.75 -22.55Q270.05 -18.9 268.9 -15.1L268.9 -15.1L264.3 0L259.5 0M301.4 -2.4L301.4 -2.4L294.9 21.6L303.7 23.25L303.15 24.95L282 24.95L282.55 23.25L290.1 21.6L306.95 -40.4Q306.75 -40.5 306.38 -40.53Q306 -40.55 305.4 -40.55L305.4 -40.55Q303.3 -40.55 301.38 -39.6Q299.45 -38.65 297.65 -36.7Q295.85 -34.75 294.1 -31.7L294.1 -31.7L292.8 -32.25Q294.95 -37.25 297.3 -40Q299.65 -42.75 302.25 -43.82Q304.85 -44.9 307.7 -44.9L307.7 -44.9Q308.95 -44.9 310.2 -44.72Q311.45 -44.55 312.35 -44.25L312.35 -44.25L308 -28.35Q310.85 -33.65 313.8 -37.1L313.8 -37.1Q317.4 -41.25 320.88 -43.15Q324.35 -45.05 327.3 -45.05L327.3 -45.05Q332.55 -45.05 335.13 -41.72Q337.7 -38.4 337.7 -33.1L337.7 -33.1Q337.7 -27.85 336.3 -22.85Q334.9 -17.85 332.35 -13.52Q329.8 -9.2 326.43 -5.93Q323.05 -2.65 319.13 -0.82Q315.2 1 310.95 1Q306.7 1 303.65 -0.7L303.65 -0.7Q302.3 -1.4 301.4 -2.4M305.6 -18.1L304 -12.15Q303.7 -11 303.6 -10.18Q303.5 -9.35 303.5 -8.75L303.5 -8.75Q303.5 -5.8 305.48 -3.62Q307.45 -1.45 311.35 -1.45L311.35 -1.45Q314.3 -1.45 317.28 -3.07Q320.25 -4.7 322.93 -7.57Q325.6 -10.45 327.7 -14.2Q329.8 -17.95 331.03 -22.25Q332.25 -26.55 332.25 -31L332.25 -31Q332.25 -35.8 330.5 -38.22Q328.75 -40.65 325.35 -40.65L325.35 -40.65Q322.75 -40.65 320.25 -39.3Q317.75 -37.95 315.45 -35.65Q313.15 -33.35 311.2 -30.45Q309.25 -27.55 307.8 -24.35Q306.35 -21.15 305.6 -18.1L305.6 -18.1M343.35 -8.25L343.35 -8.25Q343.95 -7.8 344.53 -6.8Q345.1 -5.8 346.15 -4.35L346.15 -4.35Q347.2 -2.95 348.48 -2.3Q349.75 -1.65 351.35 -1.65L351.35 -1.65Q354.2 -1.65 356.38 -2.72Q358.55 -3.8 359.78 -5.7Q361 -7.6 361 -10.1L361 -10.1Q361 -11.75 360.48 -13.35Q359.95 -14.95 358.53 -16.87Q357.1 -18.8 354.5 -21.25L354.5 -21.25Q351.9 -23.7 350.45 -25.67Q349 -27.65 348.43 -29.37Q347.85 -31.1 347.85 -32.8L347.85 -32.8Q347.85 -36.5 349.6 -39.22Q351.35 -41.95 354.5 -43.5Q357.65 -45.05 361.85 -45.05L361.85 -45.05Q365.05 -45.05 367.18 -44.22Q369.3 -43.4 370.35 -42.07Q371.4 -40.75 371.4 -39.25L371.4 -39.25Q371.4 -38.3 371 -37.58Q370.6 -36.85 369.8 -36.43Q369 -36 367.8 -36L367.8 -36Q367.35 -36.4 366.8 -37.35Q366.25 -38.3 365.2 -39.6L365.2 -39.6Q364.2 -40.95 362.85 -41.65Q361.5 -42.35 359.85 -42.35L359.85 -42.35Q356.15 -42.35 353.93 -40.45Q351.7 -38.55 351.7 -34.95L351.7 -34.95Q351.7 -33.6 352.25 -32.18Q352.8 -30.75 354.23 -29.02Q355.65 -27.3 358.15 -24.85L358.15 -24.85Q360.7 -22.45 362.18 -20.33Q363.65 -18.2 364.28 -16.23Q364.9 -14.25 364.9 -12.25L364.9 -12.25Q364.9 -8.6 362.95 -5.57Q361 -2.55 357.48 -0.77Q353.95 1 349.3 1L349.3 1Q345.9 1 343.75 0.18Q341.6 -0.65 340.55 -2Q339.5 -3.35 339.5 -4.8L339.5 -4.8Q339.5 -5.8 339.95 -6.57Q340.4 -7.35 341.28 -7.8Q342.15 -8.25 343.35 -8.25" fill="#0A0A0B"/></svg>